HIERARCHY
ROOT Hips
{
	OFFSET -14.64140 90.27770 -84.91600
	CHANNELS 6 Xposition Yposition Zposition Zrotation Xrotation Yrotation
	JOINT Spine
	{
		OFFSET 0.00000 13.20850 -1.60436
		CHANNELS 3 Zrotation Xrotation Yrotation
		JOINT Spine1
		{
			OFFSET 0.00000 8.61716 0.00000
			CHANNELS 3 Zrotation Xrotation Yrotation
			JOINT Spine2
			{
				OFFSET 0.00000 8.61717 0.00000
				CHANNELS 3 Zrotation Xrotation Yrotation
				JOINT Spine3
				{
					OFFSET 0.00000 8.61717 0.00000
					CHANNELS 3 Zrotation Xrotation Yrotation
					JOINT Neck
					{
						OFFSET 0.00000 11.07920 1.10792
						CHANNELS 3 Zrotation Xrotation Yrotation
						JOINT Neck1
						{
							OFFSET 0.00000 7.08032 0.00000
							CHANNELS 3 Zrotation Xrotation Yrotation
							JOINT Head
							{
								OFFSET 0.00000 7.08031 0.00000
								CHANNELS 3 Zrotation Xrotation Yrotation
								End site
								{
									OFFSET 0.00000 0.00000 0.00000
								}
							}
						}
					}
					JOINT RightShoulder
					{
						OFFSET -0.01000 7.91373 5.19711
						CHANNELS 3 Zrotation Xrotation Yrotation
						JOINT RightArm
						{
							OFFSET -18.41580 0.00000 0.00000
							CHANNELS 3 Zrotation Xrotation Yrotation
							JOINT RightForeArm
							{
								OFFSET -29.11090 0.00000 0.00000
								CHANNELS 3 Zrotation Xrotation Yrotation
								JOINT RightHand
								{
									OFFSET -24.65040 0.00000 0.00000
									CHANNELS 3 Zrotation Xrotation Yrotation
									JOINT RightHandThumb1
									{
										OFFSET -5.35114 -0.85590 3.97906
										CHANNELS 3 Zrotation Xrotation Yrotation
										JOINT RightHandThumb2
										{
											OFFSET -4.52789 0.00000 0.00000
											CHANNELS 3 Zrotation Xrotation Yrotation
											JOINT RightHandThumb3
											{
												OFFSET -2.46976 0.00000 0.00000
												CHANNELS 3 Zrotation Xrotation Yrotation
												End site
												{
													OFFSET 0.00000 0.00000 0.00000
												}
											}
										}
									}
									JOINT RightHandIndex1
									{
										OFFSET -14.26970 0.00000 2.88139
										CHANNELS 3 Zrotation Xrotation Yrotation
										JOINT RightHandIndex2
										{
											OFFSET -5.48836 0.00000 0.00000
											CHANNELS 3 Zrotation Xrotation Yrotation
											JOINT RightHandIndex3
											{
												OFFSET -3.01859 0.00000 0.00000
												CHANNELS 3 Zrotation Xrotation Yrotation
												End site
												{
													OFFSET 0.00000 0.00000 0.00000
												}
											}
										}
									}
									JOINT RightHandMiddle1
									{
										OFFSET -14.26970 0.00000 -0.09147
										CHANNELS 3 Zrotation Xrotation Yrotation
										JOINT RightHandMiddle2
										{
											OFFSET -6.17441 0.00000 0.00000
											CHANNELS 3 Zrotation Xrotation Yrotation
											JOINT RightHandMiddle3
											{
												OFFSET -3.56743 0.00000 0.00000
												CHANNELS 3 Zrotation Xrotation Yrotation
												End site
												{
													OFFSET 0.00000 0.00000 0.00000
												}
											}
										}
									}
									JOINT RightHandRing1
									{
										OFFSET -12.69180 0.00000 -3.06433
										CHANNELS 3 Zrotation Xrotation Yrotation
										JOINT RightHandRing2
										{
											OFFSET -5.62556 0.00000 0.00000
											CHANNELS 3 Zrotation Xrotation Yrotation
											JOINT RightHandRing3
											{
												OFFSET -3.56744 0.00000 0.00000
												CHANNELS 3 Zrotation Xrotation Yrotation
												End site
												{
													OFFSET 0.00000 0.00000 0.00000
												}
											}
										}
									}
									JOINT RightHandPinky1
									{
										OFFSET -11.11390 0.00000 -6.03719
										CHANNELS 3 Zrotation Xrotation Yrotation
										JOINT RightHandPinky2
										{
											OFFSET -4.52789 0.00000 0.00000
											CHANNELS 3 Zrotation Xrotation Yrotation
											JOINT RightHandPinky3
											{
												OFFSET -2.46976 0.00000 0.00000
												CHANNELS 3 Zrotation Xrotation Yrotation
												End site
												{
													OFFSET 0.00000 0.00000 0.00000
												}
											}
										}
									}
								}
							}
						}
					}
					JOINT LeftShoulder
					{
						OFFSET 0.01000 7.91373 5.19711
						CHANNELS 3 Zrotation Xrotation Yrotation
						JOINT LeftArm
						{
							OFFSET 18.41580 0.00000 0.00000
							CHANNELS 3 Zrotation Xrotation Yrotation
							JOINT LeftForeArm
							{
								OFFSET 29.11090 0.00000 0.00000
								CHANNELS 3 Zrotation Xrotation Yrotation
								JOINT LeftHand
								{
									OFFSET 24.65040 0.00000 0.00000
									CHANNELS 3 Zrotation Xrotation Yrotation
									JOINT LeftHandThumb1
									{
										OFFSET 5.35114 -0.85590 3.97906
										CHANNELS 3 Zrotation Xrotation Yrotation
										JOINT LeftHandThumb2
										{
											OFFSET 4.52789 0.00000 0.00000
											CHANNELS 3 Zrotation Xrotation Yrotation
											JOINT LeftHandThumb3
											{
												OFFSET 2.46977 0.00000 0.00000
												CHANNELS 3 Zrotation Xrotation Yrotation
												End site
												{
													OFFSET 0.00000 0.00000 0.00000
												}
											}
										}
									}
									JOINT LeftHandIndex1
									{
										OFFSET 14.26970 0.00000 2.88139
										CHANNELS 3 Zrotation Xrotation Yrotation
										JOINT LeftHandIndex2
										{
											OFFSET 5.48836 0.00000 0.00000
											CHANNELS 3 Zrotation Xrotation Yrotation
											JOINT LeftHandIndex3
											{
												OFFSET 3.01859 0.00000 0.00000
												CHANNELS 3 Zrotation Xrotation Yrotation
												End site
												{
													OFFSET 0.00000 0.00000 0.00000
												}
											}
										}
									}
									JOINT LeftHandMiddle1
									{
										OFFSET 14.26970 0.00000 -0.09147
										CHANNELS 3 Zrotation Xrotation Yrotation
										JOINT LeftHandMiddle2
										{
											OFFSET 6.17440 0.00000 0.00000
											CHANNELS 3 Zrotation Xrotation Yrotation
											JOINT LeftHandMiddle3
											{
												OFFSET 3.56744 0.00000 0.00000
												CHANNELS 3 Zrotation Xrotation Yrotation
												End site
												{
													OFFSET 0.00000 0.00000 0.00000
												}
											}
										}
									}
									JOINT LeftHandRing1
									{
										OFFSET 12.69180 0.00000 -3.06433
										CHANNELS 3 Zrotation Xrotation Yrotation
										JOINT LeftHandRing2
										{
											OFFSET 5.62556 0.00000 0.00000
											CHANNELS 3 Zrotation Xrotation Yrotation
											JOINT LeftHandRing3
											{
												OFFSET 3.56744 0.00000 0.00000
												CHANNELS 3 Zrotation Xrotation Yrotation
												End site
												{
													OFFSET 0.00000 0.00000 0.00000
												}
											}
										}
									}
									JOINT LeftHandPinky1
									{
										OFFSET 11.11390 0.00000 -6.03719
										CHANNELS 3 Zrotation Xrotation Yrotation
										JOINT LeftHandPinky2
										{
											OFFSET 4.52789 0.00000 0.00000
											CHANNELS 3 Zrotation Xrotation Yrotation
											JOINT LeftHandPinky3
											{
												OFFSET 2.46976 0.00000 0.00000
												CHANNELS 3 Zrotation Xrotation Yrotation
												End site
												{
													OFFSET 0.00000 0.00000 0.00000
												}
											}
										}
									}
								}
							}
						}
					}
					JOINT pCube4
					{
						OFFSET 0.00000 10.91090 1.10792
						CHANNELS 3 Zrotation Xrotation Yrotation
						End site
						{
							OFFSET 0.00000 0.00000 0.00000
						}
					}
				}
			}
		}
	}
	JOINT RightUpLeg
	{
		OFFSET -9.98441 0.00000 0.00000
		CHANNELS 3 Zrotation Xrotation Yrotation
		JOINT RightLeg
		{
			OFFSET 0.00000 -42.11790 0.00000
			CHANNELS 3 Zrotation Xrotation Yrotation
			JOINT RightFoot
			{
				OFFSET 0.00000 -45.00020 -0.00001
				CHANNELS 3 Zrotation Xrotation Yrotation
				JOINT RightForeFoot
				{
					OFFSET 0.00000 -3.74820 0.00000
					CHANNELS 3 Zrotation Xrotation Yrotation
					JOINT RightToeBase
					{
						OFFSET 0.00000 0.06325 14.43120
						CHANNELS 3 Zrotation Xrotation Yrotation
						End site
						{
							OFFSET 0.00000 0.00000 0.00000
						}
					}
				}
			}
		}
	}
	JOINT LeftUpLeg
	{
		OFFSET 9.98441 0.00000 0.00000
		CHANNELS 3 Zrotation Xrotation Yrotation
		JOINT LeftLeg
		{
			OFFSET 0.00000 -42.11800 0.00000
			CHANNELS 3 Zrotation Xrotation Yrotation
			JOINT LeftFoot
			{
				OFFSET 0.00000 -45.00070 0.00000
				CHANNELS 3 Zrotation Xrotation Yrotation
				JOINT LeftForeFoot
				{
					OFFSET 0.00000 -3.74824 0.00000
					CHANNELS 3 Zrotation Xrotation Yrotation
					JOINT LeftToeBase
					{
						OFFSET 0.00000 0.06325 14.43110
						CHANNELS 3 Zrotation Xrotation Yrotation
						End site
						{
							OFFSET 0.00000 0.00000 0.00000
						}
					}
				}
			}
		}
	}
}
MOTION
Frames: 4
Frame Time: 0.050000
-0.04828134703928927 -0.014160903420560776 0.0008498246990193963 -0.0103879062877471 0.02314427622286823 0.03396955110927953 -3.4473657058437737 -0.6266407206726353 -0.623202873906085 -1.1257389232095762 3.7525771152538 0.36937425992924916 -1.4158559445750853 -1.8993340521550637 -0.9223370819317814 0.12823444301968184 0.47635450810070407 -0.8343767972111907 0.03874461063497422 12.47979167348334 0.37892744285538965 0.2213498266958909 -0.0864137321254575 -0.9568308906070614 0.30802090282582817 -14.989915597999149 -0.08295860760819178 -4.897433911136476 1.6392731900663784 -13.982269369203065 64.53581695584634 21.199152864817034 12.799412769250003 5.819250375026833 2.146900292061256 62.45408857115773 15.466486690462263 -0.20061958316061743 -2.5442431216414967 4.494862072898208 -0.11464169912079794 -1.589695579821741 0.045863958968808564 0.0046203530885370655 -56.25839309554399 -0.03504802844845598 0.047499655446940625 -56.24282195447233 -38.75597298994114 0.03336536068633812 -0.04019478018045095 0.04209426660730421 0.0494082318675873 0.001213583180666053 -0.02977754873781799 -0.008672969594736757 -0.016578902171238454 -36.71089330149881 0.006368237873780259 -0.023347129005511943 -0.039014242307340435 0.03210458098698324 0.029157571387452435 -0.003050369057560316 0.006225513649490397 0.018323242039997658 -19.726763665521048 0.031796051872161155 -0.004892068169035806 -0.03777515136189227 -0.03743080993353188 0.026032535413171205 -0.0065414822666978985 0.011819872112091004 -0.045804435142239974 24.01343496324073 0.015260347892120753 -0.029818182586442914 28.859112027334703 -0.0015719864692354676 -0.01878280733255121 28.913751232939756 -0.02554074406115582 -0.04283300975588487 5.378680148282643 1.1242490490049786 12.549373257627568 -70.10217659520785 27.987873653124694 -10.983375189035531 -44.74745434565844 2.9997551838962133 -80.3340652912929 -5.624908431195518 0.6315541184400457 -0.6595114300020556 -0.5204900835609197 0.04703705734106294 -8.106105233806884 0.04409509029771298 -0.032156800243263985 44.592379101998674 -0.019710180416927785 -0.019945859056932694 44.60972032017001 12.476437369222232 0.04908352635892661 -0.006900925292332396 0.011113952967010576 -0.03715991237297422 -0.028163638598980075 -0.009297629445944061 0.04421962754871368 0.027724736912011973 11.131791310018764 0.00286726519307827 0.024146394471199935 -0.02476843545959556 -0.0274130474529785 0.018944385899323245 -0.042670248878047025 -0.018909720572394668 0.009787811747277613 4.725994248350683 -0.013154886568949732 -0.03849562684565566 -0.011804915020615267 -0.028296371865584653 -0.04920799617274371 0.0017390531142628682 -0.0062507493840132464 -0.042984670185985265 -5.602124005185118 8.25446314020889e-05 -0.03919741847563257 -6.759876613011543 -0.021750833316495622 0.023267674901636393 -6.685903214519675 0.009164135476473056 -0.032513584259138556 -0.017502649336945782 0.010965058604317308 0.018188712303006865 8.087335734792939 3.4533148736282233 -19.23424382637222 -0.046037376556742275 10.379381711346992 -0.004419677118195187 -5.596381063370146 -15.612543174433409 3.219088611636054 0.047175758164693014 0.015550989851987234 -0.025280488747505932 0.047910736445523835 4.700760128730267 0.0272880121426264 12.495721530719386 -8.223901580051281 6.905774144255186 0.025418343053972624 46.392286800658 -0.006552835146001348 -4.372168987839578 -14.767228379778595 -3.8664399790250763 -0.014976946406451069 0.014099891587196102 0.04161901953739056 -0.027118276391588203 -10.771142161135613 -0.005373042621801039 
-0.013070087849237822 0.020173266328917472 -0.04580724965176011 0.010757816561330102 -0.039811876221378995 -0.032043464111590245 -3.382359287437628 -0.6501131328667046 -0.6657101004259038 -1.0890669620079796 3.80551423632313 0.3677398556761602 -1.3352879337536696 -1.901487129897828 -0.9766533977406536 0.05625211647252468 0.5167235880594598 -0.8077185912561137 -0.04741065388733007 12.524880512044009 0.6731944288786949 0.28551046409690506 -0.13528653761716158 -0.11896966260436129 0.20670098044376312 -14.987036174245958 -0.02512916949335492 -4.84083505024224 1.6387820782539924 -13.940786758667667 65.04440341800884 22.095456223988094 12.011837540639908 5.971480458752363 2.551215400373516 62.68504632089793 15.558351389096988 -0.20901648863824587 -2.4726541191889715 4.568426696507456 -0.1713872852520779 -1.6225159402676403 -0.044883980391415654 -0.0148309079716846 -56.27029959874615 -0.025152888880871277 0.028596915264986113 -56.277415554653096 -38.78396264976754 -0.027941061850831218 0.007647610907336658 0.04100751754596445 -0.024056165851966252 0.04945945137047854 -0.024416863277451475 -0.018907610163223166 0.035569914348831166 -36.73629044096457 0.024512263867697517 -0.039357739895261486 -0.023826841112358384 0.011423973579907674 0.02236991799176374 0.01953232888598288 -0.02520982738098256 0.008484150252517482 -19.73380895360943 -0.03728049068226841 -0.000978745225231874 0.03488338842257955 0.002127708787127762 0.004457191036630582 0.023445863675155096 0.009904039094525854 0.008028691534713807 24.00923876431553 0.021628841636620346 -0.01052560270036681 28.86386507750982 0.029235264487097706 -0.0016893292379789129 28.862178420781433 -0.024455051805384296 0.007823459820743978 5.634494272805702 1.1763429273956503 12.561593778256057 -70.44833004345982 28.18683630161384 -10.92231726362277 -44.34424678868244 3.1400786811618238 -80.25417841827384 -6.2198731579466955 0.5734005161159575 -0.6579770536420918 -0.5226803442207344 0.03209420651869721 -8.082184617879928 -0.017716777199026295 -0.003603547134380095 44.53377997534268 -0.04936282711204106 0.035336845881505555 44.59924837820626 12.48939416464095 0.01672768903369609 -0.01255283233486654 -0.005529276122079147 0.04863258176038793 0.031040032652808972 0.02815813646278195 -0.014190072863689026 -0.03567057752672009 11.142061487325059 0.02713601109999562 0.010745479157629863 -0.02794652261432369 -0.016351202046614857 0.01819717933770512 0.0008853790059604046 0.04446967835863611 -0.0017309527225631725 4.732623439364698 -0.008346938701885567 0.03232358914294809 0.043393161651373274 0.007978187836168285 0.043333940035443885 -0.004131538434874889 0.022907955431757537 0.0018953839705052157 -5.6432385230498525 -0.012895665319571386 0.03349625979132989 -6.7383932514806295 0.03268603826522525 0.038646792679695216 -6.694066240111926 -0.00445536585568377 -0.044091357670730524 -0.04767704818717017 0.003763723932999886 0.02115274873982873 8.028642508574883 3.515521215038283 -19.229469532352464 0.0037214974625267455 10.386125528878857 0.02649407122616743 -5.591162006945932 -15.615435613555848 3.1861067389304254 0.04001777251292345 0.019500299503079337 -0.027939528184594612 0.03624271640664347 4.680379900932731 0.008792144221402816 12.450818828597937 -8.223762167059967 6.862499993961929 -0.010019189250873068 46.34716351596724 -0.026490794995863376 -4.370893339435811 -14.740922371896028 -3.7880808066344898 0.029521391359941102 0.008112766068095318 0.03651576483550497 -0.0054948765118622905 -10.773486707644487 -0.015410513257241935 
0.016806924845639563 -0.0029676928370095876 -0.035891190077613044 0.013554125925167039 -0.012623581347995717 -0.00789473053567752 -3.310672326616481 -0.5173326032716872 -0.6764527984580965 -1.0924362409861887 3.7167584770498943 0.3758430155011601 -1.2987584197351265 -1.899673356675435 -1.1063761421360918 -0.017607644417838703 0.4958772559479866 -0.8621802678659194 -0.18442533544750445 12.500956141028995 1.1138490472200253 0.174546279477865 -0.10362561409838492 0.9564904965263004 0.0057659031757002766 -15.084178320373299 0.10674725669656454 -4.546306123582123 1.5713474044601996 -14.119602795424539 67.35099826816722 23.315945552132572 9.141582240091797 5.510556852243796 3.1680867923718457 60.179394622848136 16.472106096030515 -0.21474365152449879 -2.7063861471134034 4.553730082105499 -0.10204536653173929 -1.569857120913582 0.02652239203480471 -0.02575716720261429 -56.247138500083864 0.03992427743460728 -0.027766999467761427 -56.272342748300495 -38.76561168145959 0.03776779055253624 0.022027469368508107 -0.022107041411218817 0.01516712239683852 -0.016504274335965515 0.016380211614008818 -0.03611200498904357 0.017256841516575288 -36.7093137165124 0.02403045535704653 0.01882409169931567 -0.010579976728639185 0.010267367539787997 -0.0020542998868594334 -0.023340753681774167 0.018600832045264092 -0.015031432112275141 -19.74214695080313 0.03195162044330102 0.04195964399756329 -0.04261870298150386 -0.014180126225967957 -0.04272190465719479 -0.03274687172932481 -0.033340891531557774 -0.01574864345517981 24.10140618845618 -0.004376188800409773 0.023106680213785424 28.849133950577787 0.040054608798067375 -0.0122232757496824 28.862910177353736 0.021452833230725925 0.010796216246668862 5.89441736665699 1.27057670369245 12.686139481426807 -71.057892401029 28.17372899931016 -10.854126959982167 -43.5697037090463 3.795562793151891 -80.04804741659923 -7.526238561103326 -0.22443638779974104 -0.2105337841383923 -0.49072740675480037 0.03922035586016815 -8.126353162788467 -0.045887008420728244 0.030292903419910186 44.59223012709197 -0.03767872589388967 0.011180239308528756 44.57074460795473 12.49638033673867 -0.005393897012154306 -0.023681206248444765 -0.025721575340667248 -0.02169674303323138 -0.030342742759699063 0.009586945672334719 0.0011111559631494386 0.026067515376589932 11.110533643475387 -0.032274820262775325 -0.0238599482740516 -0.022606542842561948 -0.048493488173618315 0.019861439437196954 0.025896496461776553 -0.02427965324367218 0.002318652274287836 4.804098987895404 -0.004413439061851807 -0.0345017407757239 -0.004186225243582651 0.04155873325707001 0.005634709702796081 0.03938446653861072 0.010563157063946029 0.014621023675032213 -5.600379582961713 0.013289706751487001 0.004784909492589625 -6.769380615169294 0.016157088694276622 -0.04582675839871683 -6.718459178278173 -0.014990022831760092 0.042512571591206416 -0.03493643429608778 0.006621301977316615 0.026535087809433533 8.028817775617254 3.489159683548385 -19.195379614318092 0.02942004559580239 10.42820039828919 0.0014440923185160826 -5.590273497248892 -15.670577181875153 3.2213758630897917 -0.011996023181095454 -0.029089400992449856 0.014297499830807789 -0.0057170955944866875 4.723775121046437 0.041044864892343776 12.418854566224056 -8.288258225135916 6.872711478791416 -0.037782815471628185 46.42515728549454 -0.009339768271495727 -4.35342434381652 -14.763168564542488 -3.8238429693222313 0.024564470072221043 -0.0029653778385253884 0.021940077503174404 -0.004555498712020707 -10.728812812698475 -0.01617155193553769 
-0.019509604387375677 0.0016376505221969316 0.00759784242959002 0.03338546270588301 0.029621420775581997 0.02856168112621492 -3.1621963524491337 -0.26838000269164974 -0.7269943356424893 -1.0825190474575037 3.716600669493079 0.41457572500791884 -1.2725362162664307 -1.9072074937344823 -1.21814005429081 -0.10752234529954602 0.4347311437368998 -0.8197457615754717 -0.473791857514383 12.39417160377505 1.45432305052523 0.20932201563453398 -0.20610293118536457 2.0779119484246724 -0.06886984884767447 -15.18028387572255 0.11803281324052925 -4.1086103835481085 1.4600807051983031 -14.250146914209937 70.15382777938575 25.13061427257478 5.897166930174596 4.8145153130280365 3.648736660391118 56.2221941130008 18.00352640971785 -0.1763260047869758 -3.10473651408763 4.543260643071074 -0.12790062692614046 -1.6416755821498186 -0.015853487041851706 0.023457215963207528 -56.27034885487194 -0.012529723757178488 -0.02339163103741919 -56.19478966038046 -38.79269315127347 0.006365884316904366 -0.01429598390329963 0.00045063483096234645 0.019148023948446672 -0.01451287736074593 0.04634008668149065 0.013088087445088473 0.024998624169373047 -36.666714724626615 -0.044055781864701674 -0.0024300098744945114 -0.01488318557759544 -0.006802157660128772 0.006218413876840685 -0.018927373493482013 0.011985101554807344 0.043228753562410294 -19.7973156652069 -0.02089915562265761 -0.04228617538282469 -0.04985230974300524 -0.03272884246856836 -0.015682558549936207 0.03157720283533495 -0.029237647686454014 0.040403752631190684 24.059272471726615 -0.03976736577087464 0.008366602513998683 28.857577973848606 0.031118003558199613 -0.04428955888973448 28.868569130912732 -0.00297981718325239 -0.038115983489962806 6.14145045478841 1.347863349119133 12.919495529055832 -71.70032451719342 28.09375667170976 -10.574978444292922 -42.62412493987279 4.628135541063886 -79.1674921684735 -9.445219525538555 -1.4991873233087691 0.5289323583066965 -0.5236131203079634 0.08043642099043605 -8.104040634098183 -0.004122395438581266 0.009332482933947072 44.54080749654824 -0.02783217623404064 -0.012332471573861449 44.51792561672367 12.422295761205671 -0.032253332521993236 -0.022291887293395003 0.04309943700515968 -0.008616277861592062 0.046507622661112566 -0.037590567040919544 0.046114960158070484 0.013997658946842411 11.095195686869246 0.014389050406724675 0.01347973818934488 0.015426027702351575 -0.04220820081809287 0.0012492602869041006 0.039820129188521895 -0.02097310776031461 0.026404110816512366 4.7595011880807006 -0.01535580870600409 0.010746331379641734 -0.04337895953484327 -0.00786337207996325 -0.01326697906036556 -0.043443900421976746 0.010449977904197895 0.008457018888788644 -5.588758188078684 0.023287427124341262 -0.03688797472563862 -6.713539747802979 -0.03984025657736892 0.02599452784193914 -6.717677726609504 -0.023025835022041755 -0.03901082511109415 -0.008783074560194693 -0.01565714863435245 -0.012195572433516383 8.049114120977219 3.523669435946424 -19.221626782617893 0.0391268031995602 10.391560382601119 0.0018647510827129385 -5.594037194902729 -15.68555853561044 3.188686991869609 0.005038048565603597 0.03584026932486279 0.0008601772851915604 0.02301224509052823 4.7328310101342135 0.044795595387663804 12.449710274697589 -8.246882795634221 6.909083974269275 0.013139485434209097 46.42714820104276 -0.021469316366522977 -4.3124745281702905 -14.741586470860849 -3.8013450625815093 0.04338285644051664 -0.006869666272069748 0.03785103653856033 0.02232239914155659 -10.748316299614777 -0.023530658244997452 
